<?xml version="1.0" encoding="utf-8"?>
<!-- Generator: Adobe Illustrator 16.0.0, SVG Export Plug-In . SVG Version: 6.00 Build 0)  -->
<!DOCTYPE svg PUBLIC "-//W3C//DTD SVG 1.1//EN" "http://www.w3.org/Graphics/SVG/1.1/DTD/svg11.dtd">
<svg version="1.1" id="Layer_1" xmlns="http://www.w3.org/2000/svg" xmlns:xlink="http://www.w3.org/1999/xlink" x="0px" y="0px"
	 width="40px" height="40px" viewBox="0 0 40 40" enable-background="new 0 0 40 40" xml:space="preserve">
<g>
	<rect x="1536" y="1040" fill="#3B5998" width="40" height="40"/>
	<path id="f" fill="#FFFFFF" d="M1561,1080v-16h5.011l0.989-6h-6v-3.381c0-1.748,0.296-2.938,2.803-2.938l3.197-0.002v-5.399
		c-0.554-0.073-1.793-0.238-4-0.238c-4.609,0-8,2.813-8,7.98V1058h-5v6h5v16H1561z"/>
</g>
<g>
	<rect fill="#3B5998" width="40" height="40"/>
	<path id="f_1_" fill="#FFFFFF" d="M25,40V24h5.011L31,18h-6v-3.381c0-1.748,0.296-2.938,2.803-2.938L31,11.679V6.279
		c-0.554-0.073-1.793-0.238-4-0.238c-4.609,0-8,2.813-8,7.98V18h-5v6h5v16H25z"/>
</g>
<g>
</g>
<g>
</g>
<g>
</g>
<g>
</g>
<g>
</g>
</svg>
