<?xml version="1.0" encoding="utf-8"?>
<!-- Generator: Adobe Illustrator 16.0.0, SVG Export Plug-In . SVG Version: 6.00 Build 0)  -->
<!DOCTYPE svg PUBLIC "-//W3C//DTD SVG 1.1//EN" "http://www.w3.org/Graphics/SVG/1.1/DTD/svg11.dtd">
<svg version="1.1" id="Layer_1" xmlns="http://www.w3.org/2000/svg" xmlns:xlink="http://www.w3.org/1999/xlink" x="0px" y="0px"
	 width="40px" height="40px" viewBox="0 0 40 40" enable-background="new 0 0 40 40" xml:space="preserve">
<rect fill="#DD4B39" width="40" height="40"/>
<path fill="#8D2D1C" d="M21.27,21.469c-0.787-0.532-2.288-1.826-2.288-2.587c0-0.894,0.266-1.333,1.666-2.383
	c1.439-1.074,2.457-2.635,2.457-4.394c0-2.094-0.975-4.23-2.803-4.855h2.755L25.001,6c0,0-6.516,0-8.687,0
	c-3.894,0-7.56,2.827-7.56,6.1c0,3.348,2.654,6.049,6.615,6.049c0.277,0,0.232,0.38,0.495,0.36c-0.258,0.473-0.128,0.618-0.128,1.17
	c0,0.932,0.522,1.684,1.182,2.3c-0.498,0-0.98,0.013-1.505,0.013c-4.824,0-8.537,2.945-8.537,5.997c0,3.005,4.07,4.887,8.894,4.887
	c5.5,0,8.538-2.99,8.538-5.995C24.307,24.469,23.564,23.025,21.27,21.469z M16.627,17.3c-2.237-0.064-4.364-2.399-4.75-5.215
	s1.114-4.971,3.351-4.907c2.238,0.063,4.366,2.323,4.752,5.141C20.367,15.133,18.866,17.363,16.627,17.3z M15.75,31.545
	c-3.332,0-5.74-2.022-5.74-4.45c0-2.382,2.913-3.818,6.247-3.784c0.778,0.007,1.393-0.073,2.051,0.131
	c1.811,1.204,3.292,1.544,3.657,2.919c0.069,0.277,0.107,0.564,0.107,0.856C22.073,29.647,20.44,31.545,15.75,31.545z"/>
<polygon fill="#8D2D1C" points="31,18 31,14 29,14 29,18 25,18 25,20 29,20 29,24 31,24 31,20 35,20 35,18 "/>
<polygon fill="#FFFFFF" points="31.001,19 31,15 29.001,15 29.001,19 25.001,19 25.001,21 29.001,21 29.001,25 31.001,25 31.001,21 
	35.001,21 35.001,19 "/>
<path fill="#FFFFFF" d="M21.27,22.469c-0.787-0.532-2.288-1.826-2.288-2.587c0-0.894,0.266-1.333,1.666-2.383
	c1.439-1.074,2.457-2.635,2.457-4.394c0-2.094-0.975-4.23-2.803-4.855h2.755L25.001,7c0,0-6.516,0-8.687,0
	c-3.894,0-7.56,2.827-7.56,6.1c0,3.348,2.654,6.049,6.615,6.049c0.277,0,0.544-0.005,0.807-0.024
	c-0.258,0.473-0.44,1.003-0.44,1.555c0,0.932,0.522,1.684,1.182,2.3c-0.498,0-0.98,0.013-1.505,0.013
	c-4.824,0-8.537,2.945-8.537,5.997c0,3.005,4.07,4.887,8.894,4.887c5.5,0,8.538-2.99,8.538-5.995
	C24.307,25.469,23.564,24.025,21.27,22.469z M16.627,18.3c-2.237-0.064-4.364-2.399-4.75-5.215s1.114-4.971,3.351-4.907
	c2.238,0.063,4.366,2.323,4.752,5.141C20.367,16.133,18.866,18.363,16.627,18.3z M15.75,32.545c-3.332,0-5.74-2.022-5.74-4.45
	c0-2.382,2.986-4.362,6.32-4.328c0.778,0.007,1.502,0.129,2.16,0.333c1.811,1.204,3.11,1.886,3.475,3.261
	c0.069,0.277,0.107,0.564,0.107,0.856C22.073,30.647,20.44,32.545,15.75,32.545z"/>
<g>
</g>
<g>
</g>
<g>
</g>
<g>
</g>
<g>
</g>
</svg>
