<?xml version="1.0" encoding="utf-8"?>
<!-- Generator: Adobe Illustrator 16.0.0, SVG Export Plug-In . SVG Version: 6.00 Build 0)  -->
<!DOCTYPE svg PUBLIC "-//W3C//DTD SVG 1.1//EN" "http://www.w3.org/Graphics/SVG/1.1/DTD/svg11.dtd">
<svg version="1.1" id="Layer_1" xmlns="http://www.w3.org/2000/svg" xmlns:xlink="http://www.w3.org/1999/xlink" x="0px" y="0px"
	 width="48px" height="134px" viewBox="0 0 48 134" enable-background="new 0 0 48 134" xml:space="preserve">
<g>
	<polyline fill="#DBD8C1" points="16.797,62.396 18.922,49.229 22.321,49.229 20.195,62.396 16.797,62.396 	"/>
	<path fill="#DBD8C1" d="M32.527,49.554C31.855,49.287,30.798,49,29.481,49c-3.362,0-5.729,1.787-5.747,4.346
		c-0.022,1.892,1.688,2.947,2.977,3.577c1.326,0.644,1.771,1.057,1.766,1.633c-0.01,0.883-1.057,1.287-2.036,1.287
		c-1.36,0-2.084-0.199-3.201-0.69l-0.438-0.21l-0.474,2.948c0.791,0.366,2.261,0.684,3.787,0.701c3.571,0,5.893-1.765,5.918-4.497
		c0.014-1.503-0.893-2.639-2.854-3.578c-1.189-0.61-1.918-1.016-1.91-1.633c0.001-0.547,0.617-1.134,1.949-1.134
		c1.111-0.018,1.915,0.237,2.543,0.507l0.307,0.148L32.527,49.554"/>
	<path fill="#DBD8C1" d="M41.249,49.242h-2.628c-0.814,0-1.424,0.233-1.781,1.092l-5.05,12.067h3.57c0,0,0.583-1.623,0.716-1.979
		c0.39,0,3.859,0.006,4.355,0.006c0.1,0.459,0.413,1.974,0.413,1.974H44L41.249,49.242 M37.055,57.729
		c0.283-0.757,1.354-3.68,1.354-3.68c-0.021,0.033,0.278-0.763,0.452-1.257l0.229,1.135c0,0,0.651,3.143,0.789,3.802
		C39.346,57.729,37.72,57.729,37.055,57.729z"/>
	<path fill="#DBD8C1" d="M13.943,49.239l-3.327,8.979l-0.357-1.824c-0.62-2.104-2.55-4.383-4.71-5.524l3.046,11.516l3.597-0.002
		l5.355-13.144H13.943"/>
	<g>
		<path fill="#DBD8C1" d="M7.522,49.481c0.762,0.031,1.151,0.307,1.299,0.91l0.818,4.153c-1.431-2.346-3.814-4.128-6.809-5.063
			H7.522 M7.527,49.231H2.044L2,49.506c4.267,1.089,7.089,3.721,8.259,6.888l-1.192-6.051C8.862,49.509,8.266,49.261,7.527,49.231
			L7.527,49.231z"/>
	</g>
</g>
<path fill="#DBD8C1" d="M12.146,86.687c0,0.309,0.184,0.505,0.467,0.505c0.53,0,0.911-0.507,0.933-1.238
	c-0.137-0.016-0.194-0.021-0.288-0.021C12.52,85.933,12.146,86.186,12.146,86.687z M32.032,73c-3.091,0-5.909,1.177-8.032,3.105
	c-0.003,0.003-0.006,0.006-0.009,0.01C21.867,74.186,19.058,73,15.966,73C9.355,73,4,78.373,4,85s5.355,12,11.966,12
	c3.155,0,6.018-1.233,8.156-3.234c-0.043,0.041-0.078,0.089-0.122,0.129C26.123,95.823,28.941,97,32.032,97
	C38.646,97,44,91.627,44,85S38.646,73,32.032,73z M9.05,88.158l0.743-4.679L8.13,88.158H7.245l-0.108-4.651l-0.784,4.651H5.137
	l1.018-6.086h1.867l0.05,3.767l1.263-3.767h2.018l-1.005,6.086H9.05z M13.416,88.158l0.024-0.513
	c-0.329,0.404-0.768,0.601-1.362,0.601c-0.707,0-1.187-0.554-1.187-1.354c0-1.205,0.837-1.908,2.28-1.908
	c0.146,0,0.336,0.014,0.529,0.038c0.04-0.163,0.049-0.232,0.049-0.32c0-0.328-0.225-0.451-0.832-0.451
	c-0.636-0.008-1.157,0.152-1.374,0.223c0.013-0.082,0.179-1.113,0.179-1.113c0.65-0.19,1.074-0.262,1.558-0.262
	c1.114,0,1.707,0.503,1.705,1.451c0.002,0.255-0.041,0.568-0.107,0.98c-0.112,0.719-0.354,2.254-0.387,2.629
	C14.316,88.158,13.416,88.158,13.416,88.158z M17.219,85.211c0.65,0.299,0.915,0.697,0.915,1.378c0,1.131-0.632,1.657-2.001,1.657
	c-0.795-0.023-1.06-0.083-1.356-0.148c0.009-0.054,0.181-1.141,0.181-1.141c0.414,0.132,0.777,0.191,1.162,0.191
	c0.517,0,0.746-0.139,0.746-0.449c0-0.223-0.078-0.295-0.607-0.543c-0.685-0.324-0.986-0.757-0.986-1.381
	c-0.004-0.915,0.496-1.678,1.951-1.678c0.295,0,0.807,0.042,1.143,0.096l-0.184,1.148c-0.332-0.047-0.68-0.075-0.935-0.075
	c-0.42,0-0.636,0.138-0.636,0.405C16.611,84.903,16.674,84.959,17.219,85.211z M20.087,87.033c0.146,0,0.263-0.014,0.349-0.047
	l-0.17,1.096c-0.355,0.114-0.634,0.164-0.933,0.164c-0.665,0-1.026-0.384-1.026-1.09c-0.012-0.22,0.096-0.792,0.177-1.32
	c0.076-0.461,0.563-3.377,0.563-3.377h1.293l-0.153,0.748h0.664l-0.179,1.192h-0.663c-0.15,0.94-0.365,2.112-0.368,2.268
	C19.641,86.924,19.779,87.033,20.087,87.033z M23.098,87.124c0.461,0,0.879-0.097,1.341-0.311l-0.215,1.23
	c-0.442,0.135-0.87,0.202-1.325,0.202c-1.445-0.004-2.198-0.761-2.198-2.21c0-1.692,0.958-2.938,2.258-2.938
	c1.066,0,1.748,0.697,1.748,1.793c0,0.361-0.047,0.716-0.159,1.217h-2.57C21.887,86.823,22.346,87.124,23.098,87.124z
	 M25.997,88.158h-1.302l0.062-0.334c0.224-1.532,0.514-3.084,0.678-4.617h1.192c0.009,0.254-0.044,0.498-0.079,0.75
	c0.399-0.584,0.703-0.891,1.248-0.777c-0.162,0.272-0.378,0.816-0.493,1.434C26.573,84.541,26.461,85.131,25.997,88.158z
	 M30.98,88.066c-0.479,0.131-0.787,0.18-1.148,0.18c-1.398,0-2.267-1.011-2.267-2.629c0-2.176,1.202-3.697,2.923-3.697
	c0.567,0,1.239,0.239,1.43,0.316l-0.214,1.32c-0.464-0.232-0.799-0.328-1.161-0.328c-0.967,0-1.647,0.939-1.647,2.279
	c0,0.925,0.456,1.482,1.211,1.482c0.319,0,0.673-0.099,1.105-0.312L30.98,88.066z M34.959,88.158c-0.173,0-1.077,0-1.077,0
	l0.025-0.513c-0.329,0.404-0.769,0.601-1.363,0.601c-0.703,0-1.187-0.554-1.187-1.354c0-1.205,0.841-1.908,2.283-1.908
	c0.145,0,0.335,0.014,0.527,0.038c0.039-0.163,0.053-0.232,0.053-0.32c0-0.328-0.229-0.451-0.836-0.451
	c-0.633-0.008-1.158,0.152-1.375,0.223c0.016-0.082,0.185-1.113,0.185-1.113c0.645-0.19,1.072-0.262,1.552-0.262
	c1.114,0,1.707,0.503,1.705,1.451c0.003,0.255-0.038,0.568-0.104,0.98C35.233,86.248,34.992,87.783,34.959,88.158z M36.69,88.158
	h-1.297l0.058-0.334c0.225-1.532,0.515-3.084,0.678-4.617h1.194c0.014,0.254-0.046,0.498-0.078,0.75
	c0.397-0.584,0.7-0.891,1.245-0.777c-0.16,0.272-0.378,0.816-0.493,1.434C37.269,84.541,37.156,85.131,36.69,88.158z M40.609,88.158
	l0.058-0.462c-0.357,0.386-0.721,0.55-1.198,0.55c-0.943,0-1.569-0.82-1.569-2.057c0-1.646,0.97-3.032,2.115-3.032
	c0.503,0,0.886,0.205,1.24,0.674l0.289-1.759h1.283l-0.992,6.086H40.609z M22.897,84.225c-0.411,0-0.706,0.316-0.826,0.883h1.428
	C23.506,85.006,23.639,84.225,22.897,84.225z M40.26,84.376c-0.586,0-1.006,0.688-1.006,1.663c0,0.647,0.224,0.976,0.665,0.976
	c0.604,0,1.029-0.688,1.029-1.668C40.948,84.718,40.707,84.376,40.26,84.376z M32.615,86.687c0,0.309,0.184,0.505,0.467,0.505
	c0.528,0,0.909-0.507,0.933-1.238c-0.137-0.016-0.197-0.021-0.29-0.021C32.988,85.933,32.615,86.186,32.615,86.687z"/>
<path fill="#DBD8C1" d="M37.512,115.658l-2.291-2.518h-7.429v7.719h7.333l2.336-2.573l2.297,2.573H41.5v-0.699L38.67,117l2.83-3.026
	v-0.833h-1.67L37.512,115.658z M34.167,119.26H29.64v-1.543h4.052v-1.587H29.64v-1.394h4.619l2.024,2.245L34.167,119.26z
	 M37.453,120.691l-1.556,1.676L23.2,122.403v-1.354l-0.566,1.354h-3.216l-0.546-1.326v1.326h-6.203l-0.714-1.746h-1.59l-0.711,1.746
	H6.5V127h35v-4.627l-2.561-0.006L37.453,120.691z M13.092,119.146l0.708,1.713h3.759v-6.047l2.68,6.047h1.623l2.666-6.028
	l0.009,6.028h1.899v-7.717h-3.088l-2.205,5.26l-2.427-5.26h-3.017v7.331l-3.125-7.331H9.838l-3.302,7.717h2.016l0.702-1.713H13.092z
	 M9.896,117.542l0.516-1.259l0.75-1.801h0.006l0.885,2.152l0.361,0.91H9.896V117.542z M6.5,107v9.74l2.238-5.113h4.832l0.605,1.268
	v-1.268h5.628l1.228,2.787l1.217-2.787l13.849-0.031l1.415,1.658l1.523-1.658H41.5V107H6.5z"/>
<path fill="#DBD8C1" d="M34,18v-6c0-4.783-3.176-8-8-8h-4c-4.783,0-8,3.217-8,8v6h-4v20h28V18H34z M18,12c0-2.391,1.609-4,4-4h4
	c2.393,0,4,1.609,4,4v6H18V12z M18.01,26.125c0.256,0.448,0.592,0.912,0.928,1.408c0.4,0.593,0.801,1.2,1.104,1.793
	c0.305,0.592,0.513,1.2,0.513,1.841c0,0.784-0.128,1.521-0.496,2.064c-0.368,0.545-0.961,0.896-1.905,0.896
	c-1.104,0-1.729-0.416-2.08-1.057c-0.353-0.64-0.433-1.488-0.433-2.368l1.696-0.16c0,0.496,0.017,0.992,0.145,1.36
	c0.112,0.384,0.304,0.64,0.672,0.64c0.513,0,0.705-0.544,0.705-1.296c0-0.385-0.192-0.833-0.448-1.297
	c-0.145-0.224-0.288-0.464-0.448-0.704c-0.337-0.48-0.705-1.024-1.089-1.616c-0.384-0.593-0.672-1.201-0.849-1.825
	c-0.096-0.304-0.144-0.624-0.144-0.944c0-0.641,0.144-1.328,0.512-1.856c0.368-0.513,0.929-0.881,1.745-0.896
	c1.04-0.017,1.648,0.416,1.984,1.04c0.337,0.641,0.433,1.425,0.433,2.081l-1.696,0.16c0-0.385-0.017-0.816-0.129-1.152
	c-0.111-0.32-0.288-0.545-0.56-0.545c-0.448,0.017-0.593,0.48-0.593,1.169C17.577,25.261,17.754,25.677,18.01,26.125z
	 M24.298,26.125c0.256,0.448,0.592,0.912,0.929,1.408c0.399,0.593,0.8,1.2,1.104,1.793c0.305,0.592,0.513,1.2,0.513,1.841
	c0,0.784-0.128,1.521-0.496,2.064c-0.368,0.545-0.961,0.896-1.905,0.896c-1.104,0-1.729-0.416-2.08-1.057
	c-0.353-0.64-0.433-1.488-0.433-2.368l1.696-0.16c0,0.496,0.017,0.992,0.145,1.36c0.112,0.384,0.304,0.64,0.672,0.64
	c0.513,0,0.705-0.544,0.705-1.296c0-0.385-0.192-0.833-0.448-1.297c-0.145-0.224-0.288-0.464-0.448-0.704
	c-0.337-0.48-0.705-1.024-1.089-1.616c-0.384-0.593-0.672-1.201-0.849-1.825c-0.096-0.304-0.144-0.624-0.144-0.944
	c0-0.641,0.144-1.328,0.512-1.856c0.368-0.513,0.929-0.881,1.745-0.896c1.04-0.017,1.648,0.416,1.984,1.04
	c0.337,0.641,0.433,1.425,0.433,2.081l-1.696,0.16c0-0.385-0.017-0.816-0.129-1.152c-0.111-0.32-0.288-0.545-0.56-0.545
	c-0.448,0.017-0.593,0.48-0.593,1.169C23.865,25.261,24.042,25.677,24.298,26.125z M32.586,34h-4.018V22.235h1.729v10.164h2.289V34z
	"/>
<g>
</g>
<g>
</g>
<g>
</g>
<g>
</g>
<g>
</g>
</svg>
