<?xml version="1.0" encoding="utf-8"?>
<!-- Generator: Adobe Illustrator 16.0.0, SVG Export Plug-In . SVG Version: 6.00 Build 0)  -->
<!DOCTYPE svg PUBLIC "-//W3C//DTD SVG 1.1//EN" "http://www.w3.org/Graphics/SVG/1.1/DTD/svg11.dtd">
<svg version="1.1" id="Layer_1" xmlns="http://www.w3.org/2000/svg" xmlns:xlink="http://www.w3.org/1999/xlink" x="0px" y="0px" width="24px" height="24px" viewBox="0 0 24 24" enable-background="new 0 0 24 24" xml:space="preserve">
<g><path fill="#ffffff" d="M22.529,12.255c0,5.799-4.707,10.5-10.513,10.5c-5.781,0-10.487-4.701-10.487-10.5c0-5.8,4.706-10.5,10.487-10.5
		C17.822,1.755,22.529,6.456,22.529,12.255z M18.75,8.706l-1.377-1.351c-0.201-0.199-0.551-0.199-0.776,0l-6.082,6.1
		c-0.201,0.225-0.551,0.225-0.776,0l-2.203-2.2c-0.225-0.225-0.575-0.225-0.776,0l-1.377,1.35c-0.2,0.226-0.2,0.576,0,0.776
		l3.48,3.5c0.2,0.199,0.625,0.375,0.926,0.375h0.65c0.301,0,0.701-0.176,0.926-0.375l7.385-7.4C18.95,9.281,18.95,8.93,18.75,8.706
		z"/>
</g></svg>
