<?xml version="1.0" encoding="utf-8"?>
<!-- Generator: Adobe Illustrator 16.0.0, SVG Export Plug-In . SVG Version: 6.00 Build 0)  -->
<!DOCTYPE svg PUBLIC "-//W3C//DTD SVG 1.1//EN" "http://www.w3.org/Graphics/SVG/1.1/DTD/svg11.dtd">
<svg version="1.1" id="Layer_1" xmlns="http://www.w3.org/2000/svg" xmlns:xlink="http://www.w3.org/1999/xlink" x="0px" y="0px" width="16px" height="16px" viewBox="0 0 16 16" enable-background="new 0 0 16 16" xml:space="preserve">
<g><path fill="#ffffff" d="M14.242,11.033c0,0.447-0.353,0.816-0.8,0.816c-0.064,0-0.129-0.016-0.192-0.016c-0.304,0.256-0.736,0.607-1.265,0.943
		c-0.704,0.465-1.568,0.945-2.514,1.217c-0.207,0.129-1.151,0.705-1.439,0.705c-0.305,0-1.377-0.641-1.521-0.721
		c-0.929-0.271-1.793-0.736-2.497-1.201c-0.513-0.336-0.961-0.688-1.265-0.943c-0.064,0-0.112,0.016-0.176,0.016
		c-0.448,0-0.816-0.369-0.816-0.816c0-0.449,0.368-0.801,0.816-0.801c0.447,0,0.8,0.352,0.8,0.801c0,0.047,0,0.096,0,0.127
		c0.272,0.225,0.672,0.4,1.152,0.721c0.656,0.434,1.473,0.512,2.305,0.529l0.513-2.418c0,0,0.064-1.568,0.112-3.073H5.279
		L4.446,6.727c-0.128,0.16-0.32,0.272-0.528,0.272c-0.368,0-0.656-0.288-0.656-0.641c0-0.352,0.288-0.64,0.656-0.64
		c0.225,0,0.417,0.111,0.528,0.288h3.041C7.504,5.366,7.52,4.79,7.536,4.47C6.863,4.262,6.384,3.653,6.384,2.917
		c0-0.896,0.72-1.616,1.601-1.616c0.896,0,1.616,0.72,1.616,1.616c0,0.721-0.48,1.329-1.137,1.537
		C8.48,4.79,8.496,5.351,8.528,6.007h3.025c0.111-0.177,0.304-0.288,0.527-0.288c0.369,0,0.656,0.288,0.656,0.64
		c0,0.353-0.287,0.641-0.656,0.641c-0.208,0-0.4-0.097-0.512-0.272l-0.849,0.192h-2.16c0.048,1.505,0.096,3.073,0.096,3.073
		l0.528,2.465c0.672,0.033,1.344,0.016,1.92-0.336c0.641-0.385,1.169-0.736,1.537-0.992c-0.016-0.031-0.016-0.064-0.016-0.096
		c0-0.449,0.367-0.801,0.816-0.801C13.89,10.232,14.242,10.584,14.242,11.033z M7.984,3.766c0.479,0,0.864-0.368,0.864-0.849
		c0-0.464-0.385-0.848-0.864-0.848c-0.465,0-0.849,0.384-0.849,0.848C7.136,3.397,7.52,3.766,7.984,3.766z"/>
</g></svg>