<?xml version="1.0" encoding="utf-8"?>
<!-- Generator: Adobe Illustrator 16.0.0, SVG Export Plug-In . SVG Version: 6.00 Build 0)  -->
<!DOCTYPE svg PUBLIC "-//W3C//DTD SVG 1.1//EN" "http://www.w3.org/Graphics/SVG/1.1/DTD/svg11.dtd">
<svg version="1.1" id="Layer_1" xmlns="http://www.w3.org/2000/svg" xmlns:xlink="http://www.w3.org/1999/xlink" x="0px" y="0px"
	 width="16px" height="16px" viewBox="0 0 16 16" enable-background="new 0 0 16 16" xml:space="preserve">
<path fill="#D6A87E" d="M1,15c0,0,0.152-2.177,2-3c0.567-0.254,3.01-0.494,4-1v-1c0,0-1.367-1.419-1.764-2.425
	C5.008,6.994,4.947,4.458,5.076,4C5.511,2.447,6.71,2,8,2s2.489,0.447,2.924,2c0.129,0.458,0.068,2.994-0.16,3.575
	C10.367,8.581,9,10,9,10v1c0.99,0.506,3.433,0.746,4,1c1.848,0.823,2,3,2,3H1z"/>
<g>
</g>
<g>
</g>
<g>
</g>
<g>
</g>
<g>
</g>
</svg>
