<?xml version="1.0" encoding="utf-8"?>
<!-- Generator: Adobe Illustrator 16.0.0, SVG Export Plug-In . SVG Version: 6.00 Build 0)  -->
<!DOCTYPE svg PUBLIC "-//W3C//DTD SVG 1.1//EN" "http://www.w3.org/Graphics/SVG/1.1/DTD/svg11.dtd">
<svg version="1.1" id="Layer_1" xmlns="http://www.w3.org/2000/svg" xmlns:xlink="http://www.w3.org/1999/xlink" x="0px" y="0px"
	 width="24px" height="32px" viewBox="0 0 24 32" enable-background="new 0 0 24 32" xml:space="preserve">
<path fill="#4B5D81" d="M24,13.983V32H0.001V13.983h3.093V8.704c0-4.783,3.92-8.704,8.7-8.704c0.042,0,0.123,0,0.167,0
	c0.079,0,0.123,0,0.163,0c4.823,0,8.7,3.921,8.7,8.704v5.279H24z M16.494,8.704c0-2.395-1.979-4.332-4.37-4.332
	c-0.04,0-0.124,0-0.124,0s-0.124,0-0.207,0c-2.393,0-4.331,1.938-4.331,4.332v5.279h9.031V8.704z"/>
<g>
</g>
<g>
</g>
<g>
</g>
<g>
</g>
<g>
</g>
</svg>
