<?xml version="1.0" encoding="utf-8"?>
<!-- Generator: Adobe Illustrator 16.0.0, SVG Export Plug-In . SVG Version: 6.00 Build 0)  -->
<!DOCTYPE svg PUBLIC "-//W3C//DTD SVG 1.1//EN" "http://www.w3.org/Graphics/SVG/1.1/DTD/svg11.dtd">
<svg version="1.1" id="Layer_1" xmlns="http://www.w3.org/2000/svg" xmlns:xlink="http://www.w3.org/1999/xlink" x="0px" y="0px"
	 width="64px" height="38px" viewBox="0 0 64 38" enable-background="new 0 0 64 38" xml:space="preserve">
<rect x="1" y="10" fill="#FFFFFF" width="59" height="24"/>
<path fill="#E2E0CD" d="M23,26h33v-1H23V26z M23,29h33v-1H23V29z M36,5.111L30.889,0l-3.362,3.363l5.11,5.111L36,5.111z M56,14H37v7
	h19V14z M55,20H38v-5h17V20z M62,12v24H3v2h61V12H62z M61,9H29.702l-3.907-3.906L21.889,9H0v26h61V9z M59,33H2V11h17.89
	l-9.428,9.429h-0.001v0.001H10.46l0.001,0.001L8,28l7.57-2.46h0.001v-0.001L30.11,11H59V33z"/>
<polygon fill="#FFFFFF" points="25.805,7.737 26.648,8.581 13.971,21.251 13.135,20.406 "/>
<g>
</g>
<g>
</g>
<g>
</g>
<g>
</g>
<g>
</g>
</svg>
