<?xml version="1.0" encoding="utf-8"?>
<!-- Generator: Adobe Illustrator 16.0.0, SVG Export Plug-In . SVG Version: 6.00 Build 0)  -->
<!DOCTYPE svg PUBLIC "-//W3C//DTD SVG 1.1//EN" "http://www.w3.org/Graphics/SVG/1.1/DTD/svg11.dtd">
<svg version="1.1" id="Layer_1" xmlns="http://www.w3.org/2000/svg" xmlns:xlink="http://www.w3.org/1999/xlink" x="0px" y="0px"
	 width="24px" height="24px" viewBox="0 0 24 24" enable-background="new 0 0 24 24" xml:space="preserve">
<g><path fill="#1C1510" d="M2.234,12.915l1.992-1.992c0.311-0.312,0.815-0.312,1.127,0l3.263,3.24c0.312,0.312,0.816,0.312,1.128,0
		l8.902-8.928c0.312-0.312,0.816-0.312,1.127,0l1.992,1.968c0.312,0.312,0.312,0.816,0,1.128L10.968,19.155
		c-0.312,0.312-0.912,0.576-1.368,0.576H8.665c-0.433,0-1.032-0.265-1.344-0.576l-5.086-5.089
		C1.922,13.755,1.922,13.227,2.234,12.915z"/>
</g>
</svg>